{
    "asset": {
        "generator": "COLLADA2GLTF",
        "version": "2.0"
    },
    "scenes": [
        {
            "nodes": [
                0
            ]
        }
    ],
    "scene": 0,
    "nodes": [
        {
            "children": [
                1
            ],
            "matrix": [
                1.0,
                0.0,
                0.0,
                0.0,
                0.0,
                0.0,
                -1.0,
                0.0,
                0.0,
                1.0,
                0.0,
                0.0,
                0.0,
                0.0,
                0.0,
                1.0
            ],
            "name": "Z_UP"
        },
        {
            "children": [
                2
            ],
            "matrix": [
                1.0,
                0.0,
                0.0,
                0.0,
                0.0,
                1.0,
                0.0,
                0.0,
                0.0,
                0.0,
                1.0,
                0.0,
                0.0,
                1.326977278059971e-10,
                0.0,
                1.0
            ],
            "name": "cam01"
        },
        {
            "mesh": 0,
            "matrix": [
                1.0,
                0.0,
                0.0,
                0.0,
                0.0,
                1.0,
                0.0,
                0.0,
                0.0,
                0.0,
                1.0,
                0.0,
                0.0,
                2.409062993535827e-8,
                -0.09056638926267624,
                1.0
            ]
        }
    ],
    "meshes": [
        {
            "primitives": [
                {
                    "attributes": {
                        "NORMAL": 1,
                        "POSITION": 2
                    },
                    "indices": 0,
                    "mode": 4,
                    "material": 0
                },
                {
                    "attributes": {
                        "NORMAL": 4,
                        "POSITION": 5,
                        "TEXCOORD_0": 6
                    },
                    "indices": 3,
                    "mode": 4,
                    "material": 1
                },
                {
                    "attributes": {
                        "NORMAL": 8,
                        "POSITION": 9
                    },
                    "indices": 7,
                    "mode": 4,
                    "material": 2
                },
                {
                    "attributes": {
                        "NORMAL": 11,
                        "POSITION": 12
                    },
                    "indices": 10,
                    "mode": 4,
                    "material": 3
                }
            ],
            "name": "cam01"
        }
    ],
    "accessors": [
        {
            "bufferView": 0,
            "byteOffset": 0,
            "componentType": 5123,
            "count": 13248,
            "max": [
                2252
            ],
            "min": [
                0
            ],
            "type": "SCALAR"
        },
        {
            "bufferView": 1,
            "byteOffset": 0,
            "componentType": 5126,
            "count": 2253,
            "max": [
                1.0,
                0.9999943375587465,
                1.0
            ],
            "min": [
                -1.0,
                -0.9999942183494568,
                -0.9999999403953552
            ],
            "type": "VEC3"
        },
        {
            "bufferView": 1,
            "byteOffset": 27036,
            "componentType": 5126,
            "count": 2253,
            "max": [
                0.09931325912475586,
                0.09931322932243349,
                0.09391705691814424
            ],
            "min": [
                -0.09931325912475586,
                -0.09931328892707824,
                -0.011076782830059529
            ],
            "type": "VEC3"
        },
        {
            "bufferView": 0,
            "byteOffset": 26496,
            "componentType": 5123,
            "count": 12288,
            "max": [
                2297
            ],
            "min": [
                0
            ],
            "type": "SCALAR"
        },
        {
            "bufferView": 1,
            "byteOffset": 54072,
            "componentType": 5126,
            "count": 2298,
            "max": [
                1.0,
                0.9999999403953552,
                1.0
            ],
            "min": [
                -1.0,
                -1.0,
                -1.0
            ],
            "type": "VEC3"
        },
        {
            "bufferView": 1,
            "byteOffset": 81648,
            "componentType": 5126,
            "count": 2298,
            "max": [
                0.08484470844268799,
                0.08484470844268799,
                0.04195940122008324
            ],
            "min": [
                -0.08484470844268799,
                -0.08484470844268799,
                -0.04525401070713997
            ],
            "type": "VEC3"
        },
        {
            "bufferView": 2,
            "byteOffset": 0,
            "componentType": 5126,
            "count": 2298,
            "max": [
                0.9999994039535524,
                1.000000238418579
            ],
            "min": [
                0.0,
                0.5312501192092896
            ],
            "type": "VEC2"
        },
        {
            "bufferView": 0,
            "byteOffset": 51072,
            "componentType": 5123,
            "count": 864,
            "max": [
                189
            ],
            "min": [
                0
            ],
            "type": "SCALAR"
        },
        {
            "bufferView": 1,
            "byteOffset": 109224,
            "componentType": 5126,
            "count": 190,
            "max": [
                0.7730099558830261,
                -0.21062390506267548,
                0.397289514541626
            ],
            "min": [
                -0.7730101346969605,
                -0.997062087059021,
                -0.977567195892334
            ],
            "type": "VEC3"
        },
        {
            "bufferView": 1,
            "byteOffset": 111504,
            "componentType": 5126,
            "count": 190,
            "max": [
                0.005546491127461195,
                -0.06125669553875923,
                0.006308793555945158
            ],
            "min": [
                -0.005546486470848322,
                -0.06714576482772827,
                -0.003556050593033433
            ],
            "type": "VEC3"
        },
        {
            "bufferView": 0,
            "byteOffset": 52800,
            "componentType": 5123,
            "count": 22122,
            "max": [
                3981
            ],
            "min": [
                0
            ],
            "type": "SCALAR"
        },
        {
            "bufferView": 1,
            "byteOffset": 113784,
            "componentType": 5126,
            "count": 3982,
            "max": [
                1.0,
                1.0,
                1.0
            ],
            "min": [
                -1.0,
                -1.0,
                -1.0
            ],
            "type": "VEC3"
        },
        {
            "bufferView": 1,
            "byteOffset": 161568,
            "componentType": 5126,
            "count": 3982,
            "max": [
                0.08353067189455033,
                0.08353067189455033,
                0.05358797684311867
            ],
            "min": [
                -0.08353067189455033,
                -0.08353067189455033,
                -0.03655087947845459
            ],
            "type": "VEC3"
        }
    ],
    "materials": [
        {
            "pbrMetallicRoughness": {
                "baseColorFactor": [
                    0.8941177129745483,
                    0.8941177129745483,
                    0.8941177129745483,
                    1.0
                ],
                "metallicFactor": 0.0
            },
            "emissiveFactor": [
                0.0,
                0.0,
                0.0
            ],
            "name": "_2_-_Default"
        },
        {
            "pbrMetallicRoughness": {
                "baseColorTexture": {
                    "index": 0
                },
                "metallicFactor": 0.0
            },
            "emissiveFactor": [
                0.0,
                0.0,
                0.0
            ],
            "occlusionTexture": {
                "index": 0
            },
            "name": "Material__44"
        },
        {
            "pbrMetallicRoughness": {
                "baseColorFactor": [
                    0.2705881893634796,
                    0.364705890417099,
                    0.4823530018329621,
                    1.0
                ],
                "metallicFactor": 0.0
            },
            "emissiveFactor": [
                0.0,
                0.0,
                0.0
            ],
            "name": "_3_-_Default"
        },
        {
            "pbrMetallicRoughness": {
                "baseColorFactor": [
                    0.11764710396528244,
                    0.11764710396528244,
                    0.11764710396528244,
                    1.0
                ],
                "metallicFactor": 0.0
            },
            "emissiveFactor": [
                0.0,
                0.0,
                0.0
            ],
            "name": "_9_-_Default"
        }
    ],
    "textures": [
        {
            "sampler": 0,
            "source": 0
        }
    ],
    "images": [
        {
            "uri": "data:image/png;base64,"
        }
    ],
    "samplers": [
        {
            "magFilter": 9729,
            "minFilter": 9986,
            "wrapS": 10497,
            "wrapT": 10497
        }
    ],
    "bufferViews": [
        {
            "buffer": 0,
            "byteOffset": 227736,
            "byteLength": 97044,
            "target": 34963
        },
        {
            "buffer": 0,
            "byteOffset": 0,
            "byteLength": 209352,
            "byteStride": 12,
            "target": 34962
        },
        {
            "buffer": 0,
            "byteOffset": 209352,
            "byteLength": 18384,
            "byteStride": 8,
            "target": 34962
        }
    ],
    "buffers": [
        {
            "byteLength": 324780,
            "uri": "data:application/octet-stream;base64,"
        }
    ]
}
