{
    "asset": {
        "generator": "COLLADA2GLTF",
        "version": "2.0"
    },
    "scenes": [
        {
            "nodes": [
                0
            ]
        }
    ],
    "scene": 0,
    "nodes": [
        {
            "children": [
                1
            ],
            "matrix": [
                1.0,
                0.0,
                0.0,
                0.0,
                0.0,
                0.0,
                -1.0,
                0.0,
                0.0,
                1.0,
                0.0,
                0.0,
                0.0,
                0.0,
                0.0,
                1.0
            ],
            "name": "Z_UP"
        },
        {
            "children": [
                2
            ],
            "matrix": [
                3.7672250270843508,
                0.0,
                0.0,
                0.0,
                0.0,
                3.7672250270843508,
                0.0,
                0.0,
                0.0,
                0.0,
                3.7672250270843508,
                0.0,
                0.0,
                0.0,
                0.0,
                1.0
            ],
            "name": "hydrant"
        },
        {
            "mesh": 0,
            "matrix": [
                1.0,
                0.0,
                0.0,
                0.0,
                0.0,
                1.0,
                0.0,
                0.0,
                0.0,
                0.0,
                1.0,
                0.0,
                0.004849002230912447,
                6.028130772328666e-10,
                -0.0006928840302862227,
                1.0
            ]
        }
    ],
    "meshes": [
        {
            "primitives": [
                {
                    "attributes": {
                        "NORMAL": 1,
                        "POSITION": 2
                    },
                    "indices": 0,
                    "mode": 4,
                    "material": 0
                }
            ],
            "name": "hydrant"
        }
    ],
    "accessors": [
        {
            "bufferView": 0,
            "byteOffset": 0,
            "componentType": 5123,
            "count": 47172,
            "max": [
                18737
            ],
            "min": [
                0
            ],
            "type": "SCALAR"
        },
        {
            "bufferView": 1,
            "byteOffset": 0,
            "componentType": 5126,
            "count": 18738,
            "max": [
                1.0,
                1.0,
                1.0
            ],
            "min": [
                -1.0,
                -1.0,
                -1.0
            ],
            "type": "VEC3"
        },
        {
            "bufferView": 1,
            "byteOffset": 224856,
            "componentType": 5126,
            "count": 18738,
            "max": [
                0.0508204996585846,
                0.033988069742918017,
                0.23953261971473698
            ],
            "min": [
                -0.06051849573850632,
                -0.033988069742918017,
                0.0006928865914233029
            ],
            "type": "VEC3"
        }
    ],
    "materials": [
        {
            "pbrMetallicRoughness": {
                "baseColorFactor": [
                    1.0,
                    0.10588239878416062,
                    0.10588239878416062,
                    1.0
                ],
                "metallicFactor": 0.0
            },
            "emissiveFactor": [
                0.0,
                0.0,
                0.0
            ],
            "name": "_1_-_Default"
        }
    ],
    "bufferViews": [
        {
            "buffer": 0,
            "byteOffset": 449712,
            "byteLength": 94344,
            "target": 34963
        },
        {
            "buffer": 0,
            "byteOffset": 0,
            "byteLength": 449712,
            "byteStride": 12,
            "target": 34962
        }
    ],
    "buffers": [
        {
            "byteLength": 544056,
            "uri": "data:application/octet-stream;base64,"
        }
    ]
}
